<?xml version="1.0" encoding="UTF-8"?>
<svg xmlns="http://www.w3.org/2000/svg" style="display:none;">
  <symbol id="whatsapp" viewBox="0 0 24 24">
    <path fill="currentColor" d="M20.5 3.5c-2-2-5-3-8.5-3-6 0-10 4-10 9 0 1.5.5 3 1.5 4l-1 4 4-1c1 .5 2.5 1 4 1 5 0 9-4 9-10 0-3.5-1-6.5-3-8.5zM12 18c-1 0-2-.3-2.8-.9L6 18l1.9-3.4C7.2 13.7 7 12.9 7 12c0-2.8 2.2-5 5-5s5 2.2 5 5-2.2 5-5 5z" />
  </symbol>
  <symbol id="messenger" viewBox="0 0 24 24">
    <path fill="currentColor" d="M12 2C6.5 2 2 5.8 2 10c0 2 1 3.8 2.7 5.2V22l4.1-2c.9.2 1.9.3 2.9.3 5.5 0 10-3.8 10-8.6S17.5 2 12 2zM9 12l2.4-3.2L15 12l-3.6 3.2L9 12z" />
  </symbol>
  <symbol id="sms" viewBox="0 0 24 24">
    <path fill="currentColor" d="M20 2H4c-1.1 0-2 .9-2 2v14l4-2h14c1.1 0 2-.9 2-2V4c0-1.1-.9-2-2-2zM6 8h12v2H6V8z" />
  </symbol>
  <symbol id="email" viewBox="0 0 24 24">
    <path fill="currentColor" d="M20 4H4c-1.1 0-2 .9-2 2v12c0 1.1.9 2 2 2h16c1.1 0 2-.9 2-2V6c0-1.1-.9-2-2-2zm0 4l-8 5-8-5V6l8 5 8-5v2z" />
  </symbol>
  <symbol id="copy" viewBox="0 0 24 24">
    <path fill="currentColor" d="M16 1H4c-1.1 0-2 .9-2 2v12h2V3h12V1zm3 4H8c-1.1 0-2 .9-2 2v14c0 1.1.9 2 2 2h11c1.1 0 2-.9 2-2V7c0-1.1-.9-2-2-2z" />
  </symbol>
</svg>
